# This file uses centimeters as units for non-parametric coordinates.

mtllib G.mtl
g default
v 3.222336 0.668969 0.000000
v 3.259956 0.042926 0.000000
v 3.010406 0.669337 0.000000
v 3.198597 0.628226 0.000000
v 2.668268 0.315490 0.000000
v 3.029587 -0.015213 0.000000
v 3.333268 0.338584 0.000000
v 3.259543 0.178952 0.000000
v 3.333268 0.356912 0.000000
v 3.080053 0.356912 0.000000
v 3.080053 0.338584 0.000000
v 3.165905 0.054019 0.000000
v 3.090324 0.338438 0.000000
v 3.166674 0.187058 0.000000
v 3.240181 0.462539 0.000000
v 2.779500 0.337555 0.000000
v 3.033512 0.017743 0.000000
v 3.025200 0.636297 0.000000
v 3.257062 0.462539 0.000000
v 3.240181 0.668969 0.000000
v 2.668455 0.327012 0.000000
v 3.280342 0.327018 0.000000
v 3.141620 0.326913 0.000000
v 2.779633 0.327013 0.000000
v 2.934265 -0.006002 0.000000
v 2.934235 0.039732 0.000000
v 2.748964 0.098877 0.000000
v 2.857965 0.098833 0.000000
v 2.801404 0.050695 0.000000
v 2.801262 0.098833 0.000000
v 2.684572 0.212973 0.000000
v 2.797587 0.212893 0.000000
v 2.801150 0.201777 0.000000
v 3.259804 0.098833 0.000000
v 3.166115 0.098833 0.000000
v 3.067265 -0.013909 0.000000
v 3.067257 0.020094 0.000000
v 3.200278 0.015123 0.000000
v 3.200266 0.098833 0.000000
v 3.259633 0.212922 0.000000
v 3.166571 0.212923 0.000000
v 3.200266 0.212922 0.000000
v 3.200266 0.327012 0.000000
v 3.165010 0.269952 0.000000
v 3.200266 0.269967 0.000000
v 3.260737 0.269966 0.000000
v 3.266798 0.306940 0.000000
v 3.266767 0.327012 0.000000
v 2.934284 0.661336 0.000000
v 2.934350 0.619329 0.000000
v 2.691624 0.441033 0.000000
v 2.792191 0.441105 0.000000
v 2.759309 0.555247 0.000000
v 2.847663 0.555167 0.000000
v 2.801140 0.470434 0.000000
v 2.801262 0.555190 0.000000
v 2.801195 0.596318 0.000000
v 3.200266 0.356912 0.000000
v 3.067247 0.665158 0.000000
v 3.067265 0.632193 0.000000
v 3.194605 0.555190 0.000000
v 3.249485 0.555190 0.000000
v 3.200266 0.547281 0.000000
v 3.200266 0.555190 0.000000
v 3.200251 0.628304 0.000000
v 3.127713 0.612624 0.000000
v 3.200266 0.612235 0.000000
v 3.133906 0.609110 0.000000
v 3.133765 0.612235 0.000000
v 3.133485 0.647214 0.000000
v 3.222336 0.668969 0.094641
v 3.200251 0.628304 0.094641
v 3.200266 0.612235 0.094641
v 3.200266 0.555190 0.094641
v 3.249485 0.555190 0.094641
v 3.240181 0.668969 0.094641
v 3.266798 0.306940 0.094641
v 3.280342 0.327018 0.094641
v 3.266767 0.327012 0.094641
v 2.668455 0.327012 0.094641
v 2.668268 0.315490 0.094641
v 2.684572 0.212973 0.094641
v 2.797587 0.212893 0.094641
v 2.779633 0.327013 0.094641
v 2.801404 0.050695 0.094641
v 2.934265 -0.006002 0.094641
v 2.934235 0.039732 0.094641
v 2.857965 0.098833 0.094641
v 2.801262 0.098833 0.094641
v 2.748964 0.098877 0.094641
v 2.801150 0.201777 0.094641
v 3.200278 0.015123 0.094641
v 3.259956 0.042926 0.094641
v 3.259804 0.098833 0.094641
v 3.200266 0.098833 0.094641
v 3.029587 -0.015213 0.094641
v 3.067265 -0.013909 0.094641
v 3.067257 0.020094 0.094641
v 3.033512 0.017743 0.094641
v 3.166115 0.098833 0.094641
v 3.165905 0.054019 0.094641
v 3.259543 0.178952 0.094641
v 3.259633 0.212922 0.094641
v 3.200266 0.212922 0.094641
v 3.166571 0.212923 0.094641
v 3.166674 0.187058 0.094641
v 3.200266 0.327012 0.094641
v 3.141620 0.326913 0.094641
v 3.165010 0.269952 0.094641
v 3.200266 0.269967 0.094641
v 3.260737 0.269966 0.094641
v 2.934284 0.661336 0.094641
v 2.801195 0.596318 0.094641
v 2.801262 0.555190 0.094641
v 2.847663 0.555167 0.094641
v 2.934350 0.619329 0.094641
v 2.691624 0.441033 0.094641
v 2.779500 0.337555 0.094641
v 2.792191 0.441105 0.094641
v 2.801140 0.470434 0.094641
v 2.759309 0.555247 0.094641
v 3.333268 0.338584 0.094641
v 3.333268 0.356912 0.094641
v 3.200266 0.356912 0.094641
v 3.080053 0.356912 0.094641
v 3.080053 0.338584 0.094641
v 3.090324 0.338438 0.094641
v 3.067247 0.665158 0.094641
v 3.010406 0.669337 0.094641
v 3.025200 0.636297 0.094641
v 3.067265 0.632193 0.094641
v 3.200266 0.547281 0.094641
v 3.240181 0.462539 0.094641
v 3.257062 0.462539 0.094641
v 3.194605 0.555190 0.094641
v 3.198597 0.628226 0.094641
v 3.133485 0.647214 0.094641
v 3.133765 0.612235 0.094641
v 3.133906 0.609110 0.094641
v 3.127713 0.612624 0.094641
vt 0.833187 0.999546
vt 0.889758 0.084995
vt 0.514499 1.000000
vt 0.797495 0.939783
vt 0.000000 0.483169
vt 0.543342 0.000000
vt 1.000000 0.516905
vt 0.889137 0.283708
vt 1.000000 0.543679
vt 0.619231 0.543679
vt 0.619231 0.516905
vt 0.748330 0.101200
vt 0.634683 0.516956
vt 0.749391 0.295550
vt 0.860022 0.697984
vt 0.167209 0.515402
vt 0.549244 0.048108
vt 0.536757 0.951054
vt 0.885407 0.697984
vt 0.860022 0.999546
vt 0.000292 0.500000
vt 0.920421 0.500000
vt 0.711909 0.500000
vt 0.167395 0.500000
vt 0.400000 0.013505
vt 0.400000 0.080415
vt 0.121282 0.166667
vt 0.285269 0.166667
vt 0.200000 0.096058
vt 0.200000 0.166667
vt 0.024293 0.333333
vt 0.194623 0.333333
vt 0.200000 0.317106
vt 0.889529 0.166667
vt 0.748658 0.166667
vt 0.600000 0.001967
vt 0.600000 0.051557
vt 0.800000 0.044423
vt 0.800000 0.166667
vt 0.889272 0.333333
vt 0.749265 0.333333
vt 0.800000 0.333333
vt 0.800000 0.500000
vt 0.747292 0.416667
vt 0.800000 0.416667
vt 0.890909 0.416667
vt 0.900000 0.470694
vt 0.900000 0.500000
vt 0.400000 0.988541
vt 0.400000 0.927350
vt 0.034862 0.666667
vt 0.186381 0.666667
vt 0.137012 0.833333
vt 0.269732 0.833333
vt 0.200000 0.709454
vt 0.200000 0.833333
vt 0.200000 0.893297
vt 0.800000 0.543679
vt 0.600000 0.994146
vt 0.600000 0.945822
vt 0.791486 0.833333
vt 0.874013 0.833333
vt 0.800000 0.821779
vt 0.800000 0.833333
vt 0.800000 0.939851
vt 0.690582 0.916667
vt 0.800000 0.916667
vt 0.700000 0.911755
vt 0.700000 0.916667
vt 0.700000 0.968926
vt 0.833187 0.999546
vt 0.800000 0.939851
vt 0.800000 0.916667
vt 0.800000 0.833333
vt 0.874013 0.833333
vt 0.860022 0.999546
vt 0.900000 0.470694
vt 0.920421 0.500000
vt 0.900000 0.500000
vt 0.000292 0.500000
vt 0.000000 0.483169
vt 0.024293 0.333333
vt 0.194623 0.333333
vt 0.167395 0.500000
vt 0.200000 0.096058
vt 0.400000 0.013505
vt 0.400000 0.080415
vt 0.285269 0.166667
vt 0.200000 0.166667
vt 0.121282 0.166667
vt 0.200000 0.317106
vt 0.800000 0.044423
vt 0.889758 0.084995
vt 0.889529 0.166667
vt 0.800000 0.166667
vt 0.543342 0.000000
vt 0.600000 0.001967
vt 0.600000 0.051557
vt 0.549244 0.048108
vt 0.748658 0.166667
vt 0.748330 0.101200
vt 0.889137 0.283708
vt 0.889272 0.333333
vt 0.800000 0.333333
vt 0.749265 0.333333
vt 0.749391 0.295550
vt 0.800000 0.500000
vt 0.711909 0.500000
vt 0.747292 0.416667
vt 0.800000 0.416667
vt 0.890909 0.416667
vt 0.400000 0.988541
vt 0.200000 0.893297
vt 0.200000 0.833333
vt 0.269732 0.833333
vt 0.400000 0.927350
vt 0.034862 0.666667
vt 0.167209 0.515402
vt 0.186381 0.666667
vt 0.200000 0.709454
vt 0.137012 0.833333
vt 1.000000 0.516905
vt 1.000000 0.543679
vt 0.800000 0.543679
vt 0.619231 0.543679
vt 0.619231 0.516905
vt 0.634683 0.516956
vt 0.600000 0.994146
vt 0.514499 1.000000
vt 0.536757 0.951054
vt 0.600000 0.945822
vt 0.800000 0.821779
vt 0.860022 0.697984
vt 0.885407 0.697984
vt 0.791486 0.833333
vt 0.797495 0.939783
vt 0.700000 0.968926
vt 0.700000 0.916667
vt 0.700000 0.911755
vt 0.690582 0.916667
vt 0.833187 0.999546
vt 0.800000 0.939851
vt 0.874013 0.833333
vt 0.860022 0.999546
vt 0.900000 0.470694
vt 0.920421 0.500000
vt 0.000292 0.500000
vt 0.000000 0.483169
vt 0.024293 0.333333
vt 0.194623 0.333333
vt 0.167395 0.500000
vt 0.200000 0.096058
vt 0.400000 0.013505
vt 0.400000 0.080415
vt 0.285269 0.166667
vt 0.121282 0.166667
vt 0.200000 0.317106
vt 0.800000 0.044423
vt 0.889758 0.084995
vt 0.889529 0.166667
vt 0.543342 0.000000
vt 0.600000 0.001967
vt 0.600000 0.051557
vt 0.549244 0.048108
vt 0.748658 0.166667
vt 0.748330 0.101200
vt 0.889137 0.283708
vt 0.889272 0.333333
vt 0.749265 0.333333
vt 0.749391 0.295550
vt 0.711909 0.500000
vt 0.747292 0.416667
vt 0.890909 0.416667
vt 0.400000 0.988541
vt 0.200000 0.893297
vt 0.269732 0.833333
vt 0.400000 0.927350
vt 0.034862 0.666667
vt 0.167209 0.515402
vt 0.186381 0.666667
vt 0.200000 0.709454
vt 0.137012 0.833333
vt 1.000000 0.516905
vt 1.000000 0.543679
vt 0.800000 0.543679
vt 0.619231 0.543679
vt 0.619231 0.516905
vt 0.634683 0.516956
vt 0.600000 0.994146
vt 0.514499 1.000000
vt 0.536757 0.951054
vt 0.600000 0.945822
vt 0.800000 0.821779
vt 0.860022 0.697984
vt 0.885407 0.697984
vt 0.791486 0.833333
vt 0.797495 0.939783
vt 0.700000 0.968926
vt 0.700000 0.911755
vt 0.690582 0.916667
vn 0.000000 0.000000 1.000000
vn 0.000000 0.000000 1.000000
vn 0.000000 0.000000 1.000000
vn 0.000000 0.000000 1.000000
vn -0.000000 0.000000 1.000000
vn 0.000000 0.000000 1.000000
vn 0.000000 0.000000 1.000000
vn 0.000000 0.000000 1.000000
vn 0.000000 0.000000 1.000000
vn -0.000000 0.000000 1.000000
vn -0.000000 0.000000 1.000000
vn -0.000000 0.000000 1.000000
vn -0.000000 0.000000 1.000000
vn -0.000000 0.000000 1.000000
vn 0.000000 0.000000 1.000000
vn -0.000000 0.000000 1.000000
vn 0.000000 0.000000 1.000000
vn 0.000000 0.000000 1.000000
vn 0.000000 0.000000 1.000000
vn 0.000000 0.000000 1.000000
vn 0.000000 0.000000 1.000000
vn -0.000000 0.000000 1.000000
vn -0.000000 0.000000 1.000000
vn -0.000000 0.000000 1.000000
vn -0.000000 0.000000 1.000000
vn -0.000000 0.000000 1.000000
vn -0.000000 0.000000 1.000000
vn -0.000000 0.000000 1.000000
vn -0.000000 0.000000 1.000000
vn 0.000000 0.000000 1.000000
vn 0.000000 0.000000 1.000000
vn -0.000000 0.000000 1.000000
vn -0.000000 0.000000 1.000000
vn 0.000000 0.000000 1.000000
vn 0.000000 0.000000 1.000000
vn 0.000000 0.000000 1.000000
vn 0.000000 0.000000 1.000000
vn 0.000000 0.000000 1.000000
vn 0.000000 0.000000 1.000000
vn 0.000000 0.000000 1.000000
vn 0.000000 0.000000 1.000000
vn 0.000000 0.000000 1.000000
vn 0.000000 0.000000 1.000000
vn 0.000000 0.000000 1.000000
vn 0.000000 0.000000 1.000000
vn 0.000000 0.000000 1.000000
vn 0.000000 0.000000 1.000000
vn 0.000000 0.000000 1.000000
vn 0.000000 0.000000 1.000000
vn 0.000000 0.000000 1.000000
vn 0.000000 0.000000 1.000000
vn 0.000000 0.000000 1.000000
vn 0.000000 0.000000 1.000000
vn 0.000000 0.000000 1.000000
vn 0.000000 0.000000 1.000000
vn 0.000000 0.000000 1.000000
vn 0.000000 0.000000 1.000000
vn 0.000000 0.000000 1.000000
vn 0.000000 0.000000 1.000000
vn 0.000000 0.000000 1.000000
vn 0.000000 0.000000 1.000000
vn -0.000000 0.000000 1.000000
vn -0.000000 0.000000 1.000000
vn -0.000000 0.000000 1.000000
vn 0.000000 0.000000 1.000000
vn 0.000000 0.000000 1.000000
vn 0.000000 0.000000 1.000000
vn 0.000000 0.000000 1.000000
vn 0.000000 0.000000 1.000000
vn 0.000000 0.000000 1.000000
vn 0.000000 0.000000 -1.000000
vn 0.000000 0.000000 -1.000000
vn 0.000000 0.000000 -1.000000
vn 0.000000 0.000000 -1.000000
vn 0.000000 0.000000 -1.000000
vn 0.000000 0.000000 -1.000000
vn 0.000000 0.000000 -1.000000
vn 0.000000 0.000000 -1.000000
vn 0.000000 0.000000 -1.000000
vn 0.000000 0.000000 -1.000000
vn 0.000000 0.000000 -1.000000
vn 0.000000 0.000000 -1.000000
vn 0.000000 0.000000 -1.000000
vn 0.000000 0.000000 -1.000000
vn 0.000000 0.000000 -1.000000
vn 0.000000 0.000000 -1.000000
vn 0.000000 0.000000 -1.000000
vn 0.000000 0.000000 -1.000000
vn 0.000000 0.000000 -1.000000
vn 0.000000 0.000000 -1.000000
vn 0.000000 0.000000 -1.000000
vn 0.000000 0.000000 -1.000000
vn 0.000000 0.000000 -1.000000
vn 0.000000 0.000000 -1.000000
vn 0.000000 0.000000 -1.000000
vn 0.000000 0.000000 -1.000000
vn 0.000000 0.000000 -1.000000
vn 0.000000 0.000000 -1.000000
vn 0.000000 0.000000 -1.000000
vn 0.000000 0.000000 -1.000000
vn 0.000000 0.000000 -1.000000
vn 0.000000 0.000000 -1.000000
vn 0.000000 0.000000 -1.000000
vn 0.000000 0.000000 -1.000000
vn 0.000000 0.000000 -1.000000
vn 0.000000 0.000000 -1.000000
vn 0.000000 0.000000 -1.000000
vn 0.000000 0.000000 -1.000000
vn 0.000000 0.000000 -1.000000
vn 0.000000 0.000000 -1.000000
vn 0.000000 0.000000 -1.000000
vn 0.000000 0.000000 -1.000000
vn 0.000000 0.000000 -1.000000
vn 0.000000 0.000000 -1.000000
vn 0.000000 0.000000 -1.000000
vn 0.000000 0.000000 -1.000000
vn 0.000000 0.000000 -1.000000
vn 0.000000 0.000000 -1.000000
vn 0.000000 0.000000 -1.000000
vn 0.000000 0.000000 -1.000000
vn 0.000000 0.000000 -1.000000
vn 0.000000 0.000000 -1.000000
vn 0.000000 0.000000 -1.000000
vn 0.000000 0.000000 -1.000000
vn 0.000000 0.000000 -1.000000
vn 0.000000 0.000000 -1.000000
vn 0.000000 0.000000 -1.000000
vn 0.000000 0.000000 -1.000000
vn 0.000000 0.000000 -1.000000
vn 0.000000 0.000000 -1.000000
vn 0.000000 0.000000 -1.000000
vn 0.000000 0.000000 -1.000000
vn 0.000000 0.000000 -1.000000
vn 0.000000 0.000000 -1.000000
vn 0.000000 0.000000 -1.000000
vn 0.000000 0.000000 -1.000000
vn 0.000000 0.000000 -1.000000
vn 0.000000 0.000000 -1.000000
vn 0.000000 0.000000 -1.000000
vn 0.000000 0.000000 -1.000000
vn -0.878766 0.477254 0.000000
vn -0.878766 0.477254 0.000000
vn -0.878766 0.477254 0.000000
vn -0.878766 0.477254 0.000000
vn 0.996673 0.081504 0.000000
vn 0.996673 0.081504 0.000000
vn 0.996673 0.081504 0.000000
vn 0.996673 0.081504 0.000000
vn 0.000000 1.000000 0.000000
vn 0.000000 1.000000 0.000000
vn 0.000000 1.000000 0.000000
vn 0.000000 1.000000 0.000000
vn 0.945720 -0.324983 0.000000
vn 0.829019 -0.559220 0.000000
vn 0.829019 -0.559220 0.000000
vn 0.945720 -0.324983 0.000000
vn -0.983131 0.182905 0.000000
vn -0.990160 -0.139941 0.000000
vn -0.990160 -0.139941 0.000000
vn -0.983131 0.182905 0.000000
vn -0.937086 -0.349099 0.000000
vn -0.937086 -0.349099 0.000000
vn 0.985559 0.169331 0.000000
vn 0.989637 0.143588 0.000000
vn 0.989637 0.143588 0.000000
vn 0.985559 0.169331 0.000000
vn -0.492569 -0.870274 0.000000
vn -0.277494 -0.960727 0.000000
vn -0.277494 -0.960727 0.000000
vn -0.492569 -0.870274 0.000000
vn 0.419350 0.907825 0.000000
vn 0.772779 0.634675 0.000000
vn 0.772779 0.634675 0.000000
vn 0.419350 0.907825 0.000000
vn -0.811554 -0.584278 0.000000
vn -0.811554 -0.584278 0.000000
vn 0.883808 0.467849 0.000000
vn 0.883808 0.467849 0.000000
vn 0.282902 -0.959149 0.000000
vn 0.422297 -0.906458 0.000000
vn 0.422297 -0.906458 0.000000
vn 0.282902 -0.959149 0.000000
vn 0.999996 0.002726 0.000000
vn 0.999995 0.003040 0.000000
vn 0.999995 0.003040 0.000000
vn 0.999996 0.002726 0.000000
vn -0.059345 -0.998238 0.000000
vn -0.059345 -0.998238 0.000000
vn 0.174983 -0.984572 0.000000
vn 0.174983 -0.984572 0.000000
vn -0.264261 0.964451 0.000000
vn 0.146047 0.989278 0.000000
vn 0.146047 0.989278 0.000000
vn -0.264261 0.964451 0.000000
vn -0.999983 0.005780 0.000000
vn -0.999989 0.004680 0.000000
vn -0.999989 0.004680 0.000000
vn -0.999983 0.005780 0.000000
vn -0.325202 0.945644 0.000000
vn -0.325202 0.945644 0.000000
vn 0.999999 0.001496 0.000000
vn 0.999999 0.001496 0.000000
vn 0.999914 -0.013119 0.000000
vn 0.999914 -0.013119 0.000000
vn -0.999799 -0.020069 0.000000
vn -0.999992 0.003997 0.000000
vn -0.999992 0.003997 0.000000
vn -0.999799 -0.020069 0.000000
vn -0.925047 -0.379852 0.000000
vn -0.976873 -0.213822 0.000000
vn -0.976873 -0.213822 0.000000
vn -0.925047 -0.379852 0.000000
vn 0.997109 -0.075991 0.000000
vn 0.997109 -0.075991 0.000000
vn -0.329529 0.944146 0.000000
vn -0.518458 0.855103 0.000000
vn -0.518458 0.855103 0.000000
vn -0.329529 0.944146 0.000000
vn 0.745271 -0.666762 0.000000
vn 0.415636 -0.909531 0.000000
vn 0.415636 -0.909531 0.000000
vn 0.745271 -0.666762 0.000000
vn -0.929093 0.369847 0.000000
vn -0.929093 0.369847 0.000000
vn 0.993997 -0.109408 0.000000
vn 0.993997 -0.109408 0.000000
vn 0.986997 -0.160737 0.000000
vn 0.986997 -0.160737 0.000000
vn 0.899289 -0.437356 0.000000
vn 0.899289 -0.437356 0.000000
vn -0.817070 0.576538 0.000000
vn -0.817070 0.576538 0.000000
vn 0.213496 -0.976944 0.000000
vn 0.213496 -0.976944 0.000000
vn 0.213496 -0.976944 0.000000
vn 0.213496 -0.976944 0.000000
vn 1.000000 0.000000 0.000000
vn 1.000000 0.000000 0.000000
vn 1.000000 0.000000 0.000000
vn 1.000000 0.000000 0.000000
vn 0.000000 1.000000 0.000000
vn 0.000000 1.000000 0.000000
vn 0.000000 1.000000 0.000000
vn 0.000000 1.000000 0.000000
vn 0.000000 1.000000 0.000000
vn 0.000000 1.000000 0.000000
vn -1.000000 0.000000 0.000000
vn -1.000000 0.000000 0.000000
vn -1.000000 0.000000 0.000000
vn -1.000000 0.000000 0.000000
vn -0.014257 -0.999898 0.000000
vn -0.186246 -0.982503 0.000000
vn -0.186246 -0.982503 0.000000
vn -0.014257 -0.999898 0.000000
vn -0.219199 -0.975680 0.000000
vn -0.219199 -0.975680 0.000000
vn 0.176915 0.984226 0.000000
vn -0.028730 0.999587 0.000000
vn -0.028730 0.999587 0.000000
vn 0.176915 0.984226 0.000000
vn 0.096331 -0.995349 0.000000
vn 0.096331 -0.995349 0.000000
vn -0.225007 -0.974357 0.000000
vn -0.225007 -0.974357 0.000000
vn -0.897311 -0.441399 0.000000
vn -0.904670 -0.426113 0.000000
vn -0.904670 -0.426113 0.000000
vn -0.897311 -0.441399 0.000000
vn 0.000000 -1.000000 0.000000
vn 0.000000 -1.000000 0.000000
vn 0.000000 -1.000000 0.000000
vn 0.000000 -1.000000 0.000000
vn 0.996673 0.081505 0.000000
vn 0.996673 0.081505 0.000000
vn -0.681687 -0.731644 0.000000
vn -0.681687 -0.731644 0.000000
vn -0.047510 0.998871 0.000000
vn 0.272495 0.962157 0.000000
vn 0.272495 0.962157 0.000000
vn -0.047510 0.998871 0.000000
vn 0.270678 0.962670 0.000000
vn 0.270678 0.962670 0.000000
vn -0.651432 -0.758707 0.000000
vn -0.651432 -0.758707 0.000000
vn -0.327294 -0.944923 0.000000
vn -0.327294 -0.944923 0.000000
s 1
g Trim_Char_G_1_1 Trim_Text_IMUDGES_1_1
usemtl initialShadingGroup
f 71/141/1 72/142/2 73/67/3 74/64/4 75/143/5 76/144/6
f 77/145/7 78/146/8 79/48/9
f 80/147/10 81/148/11 82/149/12 83/150/13 84/151/14
f 85/152/15 86/153/16 87/154/17 88/155/18 89/30/19
f 90/156/20 85/152/15 89/30/19
f 89/30/19 88/155/18 91/157/21
f 82/149/12 90/156/20 89/30/19 91/157/21 83/150/13
f 92/158/22 93/159/23 94/160/24 95/39/25
f 86/153/16 96/161/26 97/162/27 98/163/28 99/164/29 87/154/17
f 97/162/27 92/158/22 95/39/25 100/165/30 101/166/31 98/163/28
f 94/160/24 102/167/32 103/168/33 104/42/34 95/39/25
f 104/42/34 105/169/35 106/170/36 100/165/30 95/39/25
f 107/43/37 108/171/38 109/172/39 110/45/40
f 109/172/39 105/169/35 104/42/34 110/45/40
f 103/168/33 111/173/41 110/45/40 104/42/34
f 111/173/41 77/145/7 79/48/9 107/43/37 110/45/40
f 112/174/42 113/175/43 114/56/44 115/176/45 116/177/46
f 117/178/47 80/147/10 84/151/14 118/179/48 119/180/49
f 120/181/50 115/176/45 114/56/44
f 121/182/51 117/178/47 119/180/49 120/181/50 114/56/44
f 113/175/43 121/182/51 114/56/44
f 78/146/8 122/183/52 123/184/53 124/185/54 107/43/37 79/48/9
f 124/185/54 125/186/55 126/187/56 127/188/57 108/171/38 107/43/37
f 128/189/58 129/190/59 112/174/42 116/177/46 130/191/60 131/192/61
f 132/193/62 133/194/63 134/195/64 75/143/5 74/64/4
f 135/196/65 132/193/62 74/64/4
f 72/142/2 136/197/66 137/198/67 138/69/68 73/67/3
f 139/199/69 135/196/65 74/64/4 73/67/3 138/69/68
f 140/200/70 139/199/69 138/69/68
f 137/198/67 128/189/58 131/192/61 140/200/70 138/69/68
s 8
f 1/71/71 20/76/72 62/75/73 64/74/74 67/73/75 65/72/76
f 47/77/77 48/79/78 22/78/79
f 21/80/80 24/84/81 32/83/82 31/82/83 5/81/84
f 29/85/85 30/89/86 28/88/87 26/87/88 25/86/89
f 27/90/90 30/89/86 29/85/85
f 30/89/86 33/91/91 28/88/87
f 31/82/83 32/83/82 33/91/91 30/89/86 27/90/90
f 38/92/92 39/95/93 34/94/94 2/93/95
f 25/86/89 26/87/88 17/99/96 37/98/97 36/97/98 6/96/99
f 36/97/98 37/98/97 12/101/100 35/100/101 39/95/93 38/92/92
f 34/94/94 39/95/93 42/104/102 40/103/103 8/102/104
f 42/104/102 39/95/93 35/100/101 14/106/105 41/105/106
f 43/107/107 45/110/108 44/109/109 23/108/110
f 44/109/109 45/110/108 42/104/102 41/105/106
f 40/103/103 42/104/102 45/110/108 46/111/111
f 46/111/111 45/110/108 43/107/107 48/79/78 47/77/77
f 49/112/112 50/116/113 54/115/114 56/114/115 57/113/116
f 51/117/117 52/119/118 16/118/119 24/84/81 21/80/80
f 55/120/120 56/114/115 54/115/114
f 53/121/121 56/114/115 55/120/120 52/119/118 51/117/117
f 57/113/116 56/114/115 53/121/121
f 22/78/79 48/79/78 43/107/107 58/124/122 9/123/123 7/122/124
f 58/124/122 43/107/107 23/108/110 13/127/125 11/126/126 10/125/127
f 59/128/128 60/131/129 18/130/130 50/116/113 49/112/112 3/129/131
f 63/132/132 64/74/74 62/75/73 19/134/133 15/133/134
f 61/135/135 64/74/74 63/132/132
f 65/72/76 67/73/75 69/138/136 70/137/137 4/136/138
f 68/139/139 69/138/136 67/73/75 64/74/74 61/135/135
f 66/140/140 69/138/136 68/139/139
f 70/137/137 69/138/136 66/140/140 60/131/129 59/128/128
s off
f 1/1/141 65/65/142 72/142/143 71/141/144
s 14
f 62/62/145 20/20/146 76/144/147 75/143/148
s off
f 20/20/149 1/1/150 71/141/151 76/144/152
s 15
f 47/47/153 22/22/154 78/146/155 77/145/156
s 16
f 21/21/157 5/5/158 81/148/159 80/147/160
f 5/5/158 31/31/161 82/149/162 81/148/159
s 17
f 32/32/163 24/24/164 84/151/165 83/150/166
s 16
f 29/29/167 25/25/168 86/153/169 85/152/170
s 17
f 26/26/171 28/28/172 88/155/173 87/154/174
s 16
f 27/27/175 29/29/167 85/152/170 90/156/176
s 17
f 28/28/172 33/33/177 91/157/178 88/155/173
s 16
f 31/31/161 27/27/175 90/156/176 82/149/162
s 17
f 33/33/177 32/32/163 83/150/166 91/157/178
s 16
f 38/38/179 2/2/180 93/159/181 92/158/182
s 15
f 2/2/183 34/34/184 94/160/185 93/159/186
s 16
f 25/25/168 6/6/187 96/161/188 86/153/169
f 6/6/187 36/36/189 97/162/190 96/161/188
s 17
f 37/37/191 17/17/192 99/164/193 98/163/194
f 17/17/192 26/26/171 87/154/174 99/164/193
s 16
f 36/36/189 38/38/179 92/158/182 97/162/190
s 22
f 35/35/195 12/12/196 101/166/197 100/165/198
s 17
f 12/12/199 37/37/191 98/163/194 101/166/200
s 15
f 34/34/184 8/8/201 102/167/202 94/160/185
f 8/8/201 40/40/203 103/168/204 102/167/202
s 22
f 41/41/205 14/14/206 106/170/207 105/169/208
f 14/14/206 35/35/195 100/165/198 106/170/207
f 23/23/209 44/44/210 109/172/211 108/171/212
f 44/44/210 41/41/205 105/169/208 109/172/211
s 15
f 40/40/203 46/46/213 111/173/214 103/168/204
f 46/46/213 47/47/153 77/145/156 111/173/214
s 16
f 49/49/215 57/57/216 113/175/217 112/174/218
s 17
f 54/54/219 50/50/220 116/177/221 115/176/222
s 16
f 51/51/223 21/21/157 80/147/160 117/178/224
s 17
f 24/24/164 16/16/225 118/179/226 84/151/165
f 16/16/225 52/52/227 119/180/228 118/179/226
f 55/55/229 54/54/219 115/176/222 120/181/230
s 16
f 53/53/231 51/51/223 117/178/224 121/182/232
s 17
f 52/52/227 55/55/229 120/181/230 119/180/228
s 16
f 57/57/216 53/53/231 121/182/232 113/175/217
s off
f 22/22/233 7/7/234 122/183/235 78/146/236
f 7/7/237 9/9/238 123/184/239 122/183/240
s 25
f 9/9/241 58/58/242 124/185/243 123/184/244
f 58/58/242 10/10/245 125/186/246 124/185/243
s off
f 10/10/247 11/11/248 126/187/249 125/186/250
s 26
f 11/11/251 13/13/252 127/188/253 126/187/254
f 13/13/252 23/23/255 108/171/256 127/188/253
s 16
f 59/59/257 3/3/258 129/190/259 128/189/260
f 3/3/258 49/49/215 112/174/218 129/190/259
s 17
f 50/50/220 18/18/261 130/191/262 116/177/221
f 18/18/261 60/60/263 131/192/264 130/191/262
f 63/63/265 15/15/266 133/194/267 132/193/268
s off
f 15/15/269 19/19/270 134/195/271 133/194/272
s 14
f 19/19/273 62/62/145 75/143/148 134/195/274
s 17
f 61/61/275 63/63/265 132/193/268 135/196/276
s 16
f 65/65/277 4/4/278 136/197/279 72/142/280
f 4/4/278 70/70/281 137/198/282 136/197/279
s 17
f 68/68/283 61/61/275 135/196/276 139/199/284
f 66/66/285 68/68/283 139/199/284 140/200/286
s 16
f 70/70/281 59/59/257 128/189/260 137/198/282
s 17
f 60/60/263 66/66/285 140/200/286 131/192/264
