# This file uses centimeters as units for non-parametric coordinates.

mtllib I.mtl
g default
v 0.304822 0.636171 0.000000
v 0.304822 0.654017 0.000000
v 0.024598 0.654017 0.000000
v 0.024598 0.636171 0.000000
v 0.024598 0.017846 0.000000
v 0.118204 0.485208 0.000000
v 0.101763 0.618805 0.000000
v 0.037033 0.636179 0.000000
v 0.118358 0.526967 0.000000
v 0.118498 0.111240 0.000000
v 0.040027 0.017718 0.000000
v 0.024598 0.000000 0.000000
v 0.304822 0.000000 0.000000
v 0.304822 0.017846 0.000000
v 0.210733 0.168869 0.000000
v 0.227369 0.035176 0.000000
v 0.292884 0.017842 0.000000
v 0.210578 0.127067 0.000000
v 0.210435 0.542750 0.000000
v 0.289399 0.636298 0.000000
v 0.118166 0.327008 0.000000
v 0.210772 0.327008 0.000000
v 0.118220 0.163504 0.000000
v 0.210726 0.163504 0.000000
v 0.117373 0.081743 0.000000
v 0.211613 0.081756 0.000000
v 0.164710 0.000000 0.000000
v 0.164710 0.081752 0.000000
v 0.105957 0.041023 0.000000
v 0.164710 0.040876 0.000000
v 0.094651 0.029167 0.000000
v 0.094654 0.000000 0.000000
v 0.164710 0.163504 0.000000
v 0.118156 0.245256 0.000000
v 0.210771 0.245256 0.000000
v 0.164710 0.245256 0.000000
v 0.164710 0.327008 0.000000
v 0.118211 0.490513 0.000000
v 0.210717 0.490513 0.000000
v 0.118167 0.408761 0.000000
v 0.210782 0.408761 0.000000
v 0.164710 0.408761 0.000000
v 0.164710 0.490513 0.000000
v 0.117331 0.572262 0.000000
v 0.211617 0.572273 0.000000
v 0.164710 0.572265 0.000000
v 0.164710 0.654017 0.000000
v 0.164710 0.613141 0.000000
v 0.223315 0.613007 0.000000
v 0.234766 0.654017 0.000000
v 0.234770 0.624879 0.000000
v 0.304822 0.636171 0.094641
v 0.304822 0.654017 0.094641
v 0.234766 0.654017 0.094641
v 0.234770 0.624879 0.094641
v 0.289399 0.636298 0.094641
v 0.164710 0.245256 0.094641
v 0.210771 0.245256 0.094641
v 0.210772 0.327008 0.094641
v 0.164710 0.327008 0.094641
v 0.164710 0.081752 0.094641
v 0.211613 0.081756 0.094641
v 0.210578 0.127067 0.094641
v 0.210726 0.163504 0.094641
v 0.164710 0.163504 0.094641
v 0.164710 0.000000 0.094641
v 0.304822 0.000000 0.094641
v 0.304822 0.017846 0.094641
v 0.292884 0.017842 0.094641
v 0.227369 0.035176 0.094641
v 0.164710 0.040876 0.094641
v 0.117373 0.081743 0.094641
v 0.105957 0.041023 0.094641
v 0.094651 0.029167 0.094641
v 0.094654 0.000000 0.094641
v 0.040027 0.017718 0.094641
v 0.024598 0.017846 0.094641
v 0.024598 0.000000 0.094641
v 0.118220 0.163504 0.094641
v 0.118498 0.111240 0.094641
v 0.210733 0.168869 0.094641
v 0.118156 0.245256 0.094641
v 0.118166 0.327008 0.094641
v 0.164710 0.408761 0.094641
v 0.210782 0.408761 0.094641
v 0.210717 0.490513 0.094641
v 0.164710 0.490513 0.094641
v 0.118167 0.408761 0.094641
v 0.118211 0.490513 0.094641
v 0.118204 0.485208 0.094641
v 0.210435 0.542750 0.094641
v 0.211617 0.572273 0.094641
v 0.164710 0.572265 0.094641
v 0.117331 0.572262 0.094641
v 0.118358 0.526967 0.094641
v 0.164710 0.654017 0.094641
v 0.024598 0.654017 0.094641
v 0.024598 0.636171 0.094641
v 0.037033 0.636179 0.094641
v 0.101763 0.618805 0.094641
v 0.164710 0.613141 0.094641
v 0.223315 0.613007 0.094641
vt 1.000000 0.972714
vt 1.000000 1.000000
vt 0.000000 1.000000
vt 0.000000 0.972714
vt 0.000000 0.027286
vt 0.333907 0.741889
vt 0.273400 0.945270
vt 0.044376 0.972783
vt 0.334577 0.805739
vt 0.334966 0.170087
vt 0.055059 0.027148
vt 0.000000 0.000000
vt 1.000000 0.000000
vt 1.000000 0.027286
vt 0.664372 0.258203
vt 0.725640 0.054723
vt 0.957397 0.027228
vt 0.663701 0.194286
vt 0.663283 0.829872
vt 0.944963 0.972850
vt 0.333907 0.500000
vt 0.664372 0.500000
vt 0.333907 0.250000
vt 0.664341 0.250000
vt 0.330733 0.125000
vt 0.667148 0.125000
vt 0.500000 0.000000
vt 0.500000 0.125000
vt 0.291184 0.062500
vt 0.500000 0.062500
vt 0.250000 0.044588
vt 0.250000 0.000000
vt 0.500000 0.250000
vt 0.333907 0.375000
vt 0.664372 0.375000
vt 0.500000 0.375000
vt 0.500000 0.500000
vt 0.333937 0.750000
vt 0.664372 0.750000
vt 0.333907 0.625000
vt 0.664372 0.625000
vt 0.500000 0.625000
vt 0.500000 0.750000
vt 0.331113 0.875000
vt 0.667687 0.875000
vt 0.500000 0.875000
vt 0.500000 1.000000
vt 0.500000 0.937500
vt 0.708381 0.937500
vt 0.750000 1.000000
vt 0.750000 0.955457
vt 1.000000 0.972714
vt 1.000000 1.000000
vt 0.750000 1.000000
vt 0.750000 0.955457
vt 0.944963 0.972850
vt 0.500000 0.375000
vt 0.664372 0.375000
vt 0.664372 0.500000
vt 0.500000 0.500000
vt 0.500000 0.125000
vt 0.667148 0.125000
vt 0.663701 0.194286
vt 0.664341 0.250000
vt 0.500000 0.250000
vt 0.500000 0.000000
vt 1.000000 0.000000
vt 1.000000 0.027286
vt 0.957397 0.027228
vt 0.725640 0.054723
vt 0.500000 0.062500
vt 0.330733 0.125000
vt 0.291184 0.062500
vt 0.250000 0.044588
vt 0.250000 0.000000
vt 0.055059 0.027148
vt 0.000000 0.027286
vt 0.000000 0.000000
vt 0.333907 0.250000
vt 0.334966 0.170087
vt 0.664372 0.258203
vt 0.333907 0.375000
vt 0.333907 0.500000
vt 0.500000 0.625000
vt 0.664372 0.625000
vt 0.664372 0.750000
vt 0.500000 0.750000
vt 0.333907 0.625000
vt 0.333937 0.750000
vt 0.333907 0.741889
vt 0.663283 0.829872
vt 0.667687 0.875000
vt 0.500000 0.875000
vt 0.331113 0.875000
vt 0.334577 0.805739
vt 0.500000 1.000000
vt 0.000000 1.000000
vt 0.000000 0.972714
vt 0.044376 0.972783
vt 0.273400 0.945270
vt 0.500000 0.937500
vt 0.708381 0.937500
vt 1.000000 0.972714
vt 1.000000 1.000000
vt 0.750000 1.000000
vt 0.750000 0.955457
vt 0.944963 0.972850
vt 0.664372 0.375000
vt 0.664372 0.500000
vt 0.667148 0.125000
vt 0.663701 0.194286
vt 0.664341 0.250000
vt 0.500000 0.000000
vt 1.000000 0.000000
vt 1.000000 0.027286
vt 0.957397 0.027228
vt 0.725640 0.054723
vt 0.330733 0.125000
vt 0.291184 0.062500
vt 0.250000 0.044588
vt 0.250000 0.000000
vt 0.055059 0.027148
vt 0.000000 0.027286
vt 0.000000 0.000000
vt 0.333907 0.250000
vt 0.334966 0.170087
vt 0.664372 0.258203
vt 0.333907 0.375000
vt 0.333907 0.500000
vt 0.664372 0.625000
vt 0.664372 0.750000
vt 0.333907 0.625000
vt 0.333937 0.750000
vt 0.333907 0.741889
vt 0.663283 0.829872
vt 0.667687 0.875000
vt 0.331113 0.875000
vt 0.334577 0.805739
vt 0.500000 1.000000
vt 0.000000 1.000000
vt 0.000000 0.972714
vt 0.044376 0.972783
vt 0.273400 0.945270
vt 0.708381 0.937500
vn 0.000000 0.000000 1.000000
vn 0.000000 0.000000 1.000000
vn -0.000000 0.000000 1.000000
vn -0.000000 0.000000 1.000000
vn 0.000000 0.000000 1.000000
vn 0.000000 0.000000 1.000000
vn 0.000000 0.000000 1.000000
vn 0.000000 0.000000 1.000000
vn 0.000000 0.000000 1.000000
vn 0.000000 0.000000 1.000000
vn 0.000000 0.000000 1.000000
vn 0.000000 0.000000 1.000000
vn 0.000000 0.000000 1.000000
vn 0.000000 0.000000 1.000000
vn 0.000000 0.000000 1.000000
vn 0.000000 0.000000 1.000000
vn 0.000000 0.000000 1.000000
vn 0.000000 0.000000 1.000000
vn 0.000000 0.000000 1.000000
vn 0.000000 0.000000 1.000000
vn 0.000000 0.000000 1.000000
vn 0.000000 0.000000 1.000000
vn 0.000000 0.000000 1.000000
vn 0.000000 0.000000 1.000000
vn 0.000000 0.000000 1.000000
vn 0.000000 0.000000 1.000000
vn 0.000000 0.000000 1.000000
vn 0.000000 0.000000 1.000000
vn 0.000000 0.000000 1.000000
vn 0.000000 0.000000 1.000000
vn 0.000000 0.000000 1.000000
vn 0.000000 0.000000 1.000000
vn 0.000000 0.000000 1.000000
vn 0.000000 0.000000 1.000000
vn -0.000000 0.000000 1.000000
vn -0.000000 0.000000 1.000000
vn 0.000000 0.000000 1.000000
vn 0.000000 0.000000 1.000000
vn 0.000000 0.000000 1.000000
vn -0.000000 0.000000 1.000000
vn -0.000000 0.000000 1.000000
vn -0.000000 0.000000 1.000000
vn 0.000000 0.000000 1.000000
vn 0.000000 0.000000 1.000000
vn -0.000000 0.000000 1.000000
vn 0.000000 0.000000 1.000000
vn 0.000000 0.000000 1.000000
vn 0.000000 0.000000 1.000000
vn 0.000000 0.000000 1.000000
vn -0.000000 0.000000 1.000000
vn -0.000000 0.000000 1.000000
vn 0.000000 0.000000 -1.000000
vn 0.000000 0.000000 -1.000000
vn 0.000000 0.000000 -1.000000
vn 0.000000 0.000000 -1.000000
vn 0.000000 0.000000 -1.000000
vn 0.000000 0.000000 -1.000000
vn 0.000000 0.000000 -1.000000
vn 0.000000 0.000000 -1.000000
vn 0.000000 0.000000 -1.000000
vn 0.000000 0.000000 -1.000000
vn 0.000000 0.000000 -1.000000
vn 0.000000 0.000000 -1.000000
vn 0.000000 0.000000 -1.000000
vn 0.000000 0.000000 -1.000000
vn 0.000000 0.000000 -1.000000
vn 0.000000 0.000000 -1.000000
vn 0.000000 0.000000 -1.000000
vn 0.000000 0.000000 -1.000000
vn 0.000000 0.000000 -1.000000
vn 0.000000 0.000000 -1.000000
vn 0.000000 0.000000 -1.000000
vn 0.000000 0.000000 -1.000000
vn 0.000000 0.000000 -1.000000
vn 0.000000 0.000000 -1.000000
vn 0.000000 0.000000 -1.000000
vn 0.000000 0.000000 -1.000000
vn 0.000000 0.000000 -1.000000
vn 0.000000 0.000000 -1.000000
vn 0.000000 0.000000 -1.000000
vn 0.000000 0.000000 -1.000000
vn 0.000000 0.000000 -1.000000
vn 0.000000 0.000000 -1.000000
vn 0.000000 0.000000 -1.000000
vn 0.000000 0.000000 -1.000000
vn 0.000000 0.000000 -1.000000
vn 0.000000 0.000000 -1.000000
vn 0.000000 0.000000 -1.000000
vn 0.000000 0.000000 -1.000000
vn 0.000000 0.000000 -1.000000
vn 0.000000 0.000000 -1.000000
vn 0.000000 0.000000 -1.000000
vn 0.000000 0.000000 -1.000000
vn 0.000000 0.000000 -1.000000
vn 0.000000 0.000000 -1.000000
vn 0.000000 0.000000 -1.000000
vn 0.000000 0.000000 -1.000000
vn 0.000000 0.000000 -1.000000
vn 0.000000 0.000000 -1.000000
vn 0.000000 0.000000 -1.000000
vn 0.000000 0.000000 -1.000000
vn 0.000000 0.000000 -1.000000
vn 1.000000 0.000000 0.000000
vn 1.000000 0.000000 0.000000
vn 1.000000 0.000000 0.000000
vn 1.000000 0.000000 0.000000
vn 0.000000 1.000000 0.000000
vn 0.000000 1.000000 0.000000
vn 0.000000 1.000000 0.000000
vn 0.000000 1.000000 0.000000
vn 0.204602 -0.978845 0.000000
vn 0.159138 -0.987256 0.000000
vn 0.159138 -0.987256 0.000000
vn 0.204602 -0.978845 0.000000
vn -0.008239 -0.999966 0.000000
vn -0.008239 -0.999966 0.000000
vn 1.000000 -0.000248 0.000000
vn 1.000000 -0.000069 0.000000
vn 1.000000 -0.000069 0.000000
vn 1.000000 -0.000248 0.000000
vn 0.983712 0.179751 0.000000
vn 0.999941 0.010852 0.000000
vn 0.999941 0.010852 0.000000
vn 0.983712 0.179751 0.000000
vn 0.999993 -0.003711 0.000000
vn 0.999993 -0.003711 0.000000
vn 0.000000 -1.000000 0.000000
vn 0.000000 -1.000000 0.000000
vn 0.000000 -1.000000 0.000000
vn 0.000000 -1.000000 0.000000
vn 1.000000 0.000000 0.000000
vn 1.000000 0.000000 0.000000
vn 1.000000 0.000000 0.000000
vn 1.000000 0.000000 0.000000
vn -0.000330 1.000000 0.000000
vn 0.218353 0.975870 0.000000
vn 0.218353 0.975870 0.000000
vn -0.000330 1.000000 0.000000
vn 0.255783 0.966734 0.000000
vn 0.255783 0.966734 0.000000
vn 0.947275 0.320422 0.000000
vn 0.947275 0.320422 0.000000
vn -0.984424 0.175812 0.000000
vn -0.917938 0.396724 0.000000
vn -0.917938 0.396724 0.000000
vn -0.984424 0.175812 0.000000
vn -0.723690 0.690126 0.000000
vn -0.723690 0.690126 0.000000
vn 0.000000 -1.000000 0.000000
vn 0.000000 -1.000000 0.000000
vn -0.205128 0.978735 0.000000
vn -0.159538 0.987192 0.000000
vn -0.159538 0.987192 0.000000
vn -0.205128 0.978735 0.000000
vn 0.008248 0.999966 0.000000
vn 0.008248 0.999966 0.000000
vn -1.000000 0.000000 0.000000
vn -1.000000 0.000000 0.000000
vn -1.000000 0.000000 0.000000
vn -1.000000 0.000000 0.000000
vn 0.000000 -1.000000 0.000000
vn 0.000000 -1.000000 0.000000
vn -0.999997 -0.002551 0.000000
vn -0.999946 0.010358 0.000000
vn -0.999946 0.010358 0.000000
vn -0.999997 -0.002551 0.000000
vn 1.000000 -0.000554 0.000000
vn 1.000000 -0.000554 0.000000
vn -1.000000 -0.000335 0.000000
vn -1.000000 -0.000335 0.000000
vn -1.000000 0.000068 0.000000
vn -1.000000 0.000068 0.000000
vn 1.000000 0.000339 0.000000
vn 0.999997 0.002590 0.000000
vn 0.999997 0.002590 0.000000
vn 1.000000 0.000339 0.000000
vn -1.000000 0.000243 0.000000
vn -1.000000 0.000243 0.000000
vn -0.999993 0.003698 0.000000
vn -1.000000 0.000541 0.000000
vn -1.000000 0.000541 0.000000
vn -0.999993 0.003698 0.000000
vn 0.999939 -0.011014 0.000000
vn 0.999939 -0.011014 0.000000
vn 0.983607 -0.180327 0.000000
vn 0.983607 -0.180327 0.000000
vn -0.984062 -0.177827 0.000000
vn -0.999942 -0.010765 0.000000
vn -0.999942 -0.010765 0.000000
vn -0.984062 -0.177827 0.000000
vn 0.000000 1.000000 0.000000
vn 0.000000 1.000000 0.000000
vn 0.000000 1.000000 0.000000
vn 0.000000 1.000000 0.000000
vn -1.000000 0.000000 0.000000
vn -1.000000 0.000000 0.000000
vn -1.000000 0.000000 0.000000
vn -1.000000 0.000000 0.000000
vn 0.000580 -1.000000 0.000000
vn -0.219565 -0.975598 0.000000
vn -0.219565 -0.975598 0.000000
vn 0.000580 -1.000000 0.000000
vn -0.259229 -0.965816 0.000000
vn -0.259229 -0.965816 0.000000
vn -0.948353 -0.317218 0.000000
vn -0.948353 -0.317218 0.000000
vn 0.915278 -0.402822 0.000000
vn 0.915278 -0.402822 0.000000
vn 0.719680 -0.694306 0.000000
vn 0.719680 -0.694306 0.000000
s 1
g Trim_Char_I_1_1 Trim_Text_IMUDGES_1_1
usemtl initialShadingGroup
f 52/103/1 53/104/2 54/105/3 55/106/4 56/107/5
f 57/36/6 58/108/7 59/109/8 60/37/9
f 61/28/10 62/110/11 63/111/12 64/112/13 65/33/14
f 66/113/15 67/114/16 68/115/17 69/116/18 70/117/19 62/110/11 61/28/10 71/30/20
f 72/118/21 73/119/22 71/30/20 61/28/10
f 73/119/22 74/120/23 75/121/24 66/113/15 71/30/20
f 74/120/23 76/122/25 77/123/26 78/124/27 75/121/24
f 79/125/28 80/126/29 72/118/21 61/28/10 65/33/14
f 65/33/14 64/112/13 81/127/30 58/108/7 57/36/6
f 82/128/31 79/125/28 65/33/14 57/36/6
f 83/129/32 82/128/31 57/36/6 60/37/9
f 84/42/33 85/130/34 86/131/35 87/43/36
f 60/37/9 59/109/8 85/130/34 84/42/33
f 88/132/37 83/129/32 60/37/9 84/42/33
f 89/133/38 90/134/39 88/132/37 84/42/33 87/43/36
f 87/43/36 86/131/35 91/135/40 92/136/41 93/46/42
f 94/137/43 95/138/44 89/133/38 87/43/36 93/46/42
f 96/139/45 97/140/46 98/141/47 99/142/48 100/143/49 94/137/43 93/46/42 101/48/50
f 101/48/50 93/46/42 92/136/41 102/144/51
f 54/105/3 96/139/45 101/48/50 102/144/51 55/106/4
s 4
f 1/52/52 20/56/53 51/55/54 50/54/55 2/53/56
f 36/57/57 37/60/58 22/59/59 35/58/60
f 28/61/61 33/65/62 24/64/63 18/63/64 26/62/65
f 27/66/66 30/71/67 28/61/61 26/62/65 16/70/68 17/69/69 14/68/70 13/67/71
f 25/72/72 28/61/61 30/71/67 29/73/73
f 29/73/73 30/71/67 27/66/66 32/75/74 31/74/75
f 31/74/75 32/75/74 12/78/76 5/77/77 11/76/78
f 23/79/79 33/65/62 28/61/61 25/72/72 10/80/80
f 33/65/62 36/57/57 35/58/60 15/81/81 24/64/63
f 34/82/82 36/57/57 33/65/62 23/79/79
f 21/83/83 37/60/58 36/57/57 34/82/82
f 42/84/84 43/87/85 39/86/86 41/85/87
f 37/60/58 42/84/84 41/85/87 22/59/59
f 40/88/88 42/84/84 37/60/58 21/83/83
f 38/89/89 43/87/85 42/84/84 40/88/88 6/90/90
f 43/87/85 46/93/91 45/92/92 19/91/93 39/86/86
f 44/94/94 46/93/91 43/87/85 38/89/89 9/95/95
f 47/96/96 48/101/97 46/93/91 44/94/94 7/100/98 8/99/99 4/98/100 3/97/101
f 48/101/97 49/102/102 45/92/92 46/93/91
f 50/54/55 51/55/54 49/102/102 48/101/97 47/96/96
s off
f 1/1/103 2/2/104 53/104/105 52/103/106
s 8
f 2/2/107 50/50/108 54/105/109 53/104/110
s 9
f 51/51/111 20/20/112 56/107/113 55/106/114
f 20/20/112 1/1/115 52/103/116 56/107/113
s 10
f 35/35/117 22/22/118 59/109/119 58/108/120
f 26/26/121 18/18/122 63/111/123 62/110/124
f 18/18/122 24/24/125 64/112/126 63/111/123
s 12
f 27/27/127 13/13/128 67/114/129 66/113/130
s off
f 13/13/131 14/14/132 68/115/133 67/114/134
s 13
f 14/14/135 17/17/136 69/116/137 68/115/138
f 17/17/136 16/16/139 70/117/140 69/116/137
s 10
f 16/16/141 26/26/121 62/110/124 70/117/142
s 14
f 25/25/143 29/29/144 73/119/145 72/118/146
f 29/29/144 31/31/147 74/120/148 73/119/145
s 12
f 32/32/149 27/27/127 66/113/130 75/121/150
s 15
f 31/31/151 11/11/152 76/122/153 74/120/154
f 11/11/152 5/5/155 77/123/156 76/122/153
s off
f 5/5/157 12/12/158 78/124/159 77/123/160
s 12
f 12/12/161 32/32/149 75/121/150 78/124/162
s 14
f 23/23/163 10/10/164 80/126/165 79/125/166
f 10/10/164 25/25/143 72/118/146 80/126/165
s 10
f 24/24/125 15/15/167 81/127/168 64/112/126
f 15/15/167 35/35/117 58/108/120 81/127/168
s 14
f 34/34/169 23/23/163 79/125/166 82/128/170
f 21/21/171 34/34/169 82/128/170 83/129/172
s 10
f 41/41/173 39/39/174 86/131/175 85/130/176
f 22/22/118 41/41/173 85/130/176 59/109/119
s 14
f 40/40/177 21/21/171 83/129/172 88/132/178
f 38/38/179 6/6/180 90/134/181 89/133/182
f 6/6/180 40/40/177 88/132/178 90/134/181
s 10
f 39/39/174 19/19/183 91/135/184 86/131/175
f 19/19/183 45/45/185 92/136/186 91/135/184
s 14
f 44/44/187 9/9/188 95/138/189 94/137/190
f 9/9/188 38/38/179 89/133/182 95/138/189
s 8
f 47/47/191 3/3/192 97/140/193 96/139/194
s off
f 3/3/195 4/4/196 98/141/197 97/140/198
s 17
f 4/4/199 8/8/200 99/142/201 98/141/202
f 8/8/200 7/7/203 100/143/204 99/142/201
s 14
f 7/7/205 44/44/187 94/137/190 100/143/206
s 10
f 45/45/185 49/49/207 102/144/208 92/136/186
s 8
f 50/50/108 47/47/191 96/139/194 54/105/109
s 10
f 49/49/207 51/51/209 55/106/210 102/144/208
